<svg width="154" height="48" viewBox="0 0 154 48" fill="none" xmlns="http://www.w3.org/2000/svg">
<path d="M67.8416 8.9044C68.52 8.84695 69.9469 8.89968 70.6065 8.9581C74.7652 9.32628 78.9026 10.9989 81.618 14.2635C84.8066 18.0973 85.1434 22.0846 84.7249 26.8033H64.4876C65.3224 28.752 66.5816 29.7343 68.685 30.0859C69.4743 30.212 70.2757 30.247 71.073 30.1901C73.3504 30.046 74.5466 29.4057 76.4107 28.0809L81.5561 33.2654L82.6999 34.4272C79.6534 37.607 75.9945 38.8179 71.6801 39.0684C66.4218 39.3736 61.1044 38.3457 57.0502 34.7529C54.1526 32.1851 52.5277 28.7048 52.3271 24.8607C52.1216 20.9233 53.208 17.1682 55.8881 14.2215C59.0816 10.7098 63.207 9.16908 67.8416 8.9044ZM64.2289 20.9901H73.6488C73.2641 19.5662 72.6536 18.4599 71.3456 17.691C70.5697 17.235 69.3165 16.9771 68.4378 17.1148C66.1443 17.3783 64.6972 18.7203 64.2289 20.9901Z" fill="currentColor"/>
<path d="M84.0645 9.41765H96.4267C97.0046 10.8676 97.5645 12.4362 98.1161 13.9034L102.315 25.0582L108.587 9.41765H120.002C119.563 10.4135 119.114 11.6195 118.703 12.6404L116.121 19.0644C115.806 19.7801 115.48 20.6501 115.184 21.3861L108.271 38.5835H95.7926C95.0017 36.7169 94.239 34.7338 93.4804 32.8482L85.7599 13.6531C85.2199 12.3097 84.552 10.7645 84.0645 9.41765Z" fill="currentColor"/>
<path d="M153.095 24.404C153.063 24.5709 153.057 24.8521 153.049 25.0269C152.679 32.5114 146.638 37.9512 139.427 38.8869C133.797 39.6207 128.2 38.6896 123.843 34.7761C118.308 29.8374 117.639 21.1309 121.992 15.2163C127.48 7.75965 140.266 6.93232 147.421 12.3431C150.197 14.4297 152.109 17.4644 152.792 20.8693C152.925 21.5407 153.016 22.2134 153.045 22.8966C153.053 23.0953 153.061 23.2937 153.09 23.4907L153.095 23.5259V24.404ZM136.424 29.7218C139.904 29.4764 141.088 26.309 140.85 23.2473C140.733 21.7414 140.254 20.3539 139.097 19.3218C138.296 18.6081 136.978 18.18 135.906 18.2716C135.881 18.2736 135.856 18.2761 135.831 18.2791C132.409 18.5108 131.146 21.6408 131.401 24.6675C131.531 26.2095 131.978 27.659 133.187 28.7038C134.005 29.4179 135.281 29.8201 136.362 29.7283C136.383 29.7266 136.403 29.7244 136.424 29.7218Z" fill="currentColor"/>
<path d="M9.6 0H29.3182C29.4441 0.0186202 29.571 0.0356147 29.6978 0.0461093C32.3961 0.269436 34.9056 1.71312 36.517 3.87851C37.4537 5.14226 38.0663 6.61627 38.3014 8.17159C38.4555 9.19425 38.4015 10.8001 38.4004 11.8807L38.4 38.4H28.8V9.6H9.6V0Z" fill="currentColor"/>
<path d="M0 9.6H9.6V38.4H28.8V48H9.08595C8.66299 47.9156 8.1765 47.904 7.72834 47.8178C4.15358 47.1281 1.21172 44.3434 0.304782 40.8202C0.133199 40.1535 0.0989111 39.5816 0 38.919V9.6Z" fill="currentColor"/>
</svg>
